<mxfile host="65bd71144e">
    <diagram id="HIP3nbAZw_EuaXWnEj3U" name="Page-1">
        <mxGraphModel dx="906" dy="611" grid="1" gridSize="10" guides="1" tooltips="1" connect="1" arrows="1" fold="1" page="1" pageScale="1" pageWidth="850" pageHeight="1100" math="0" shadow="0">
            <root>
                <mxCell id="0"/>
                <mxCell id="1" parent="0"/>
                <mxCell id="7" value="http://ics2o.mths.ca" style="swimlane;whiteSpace=wrap;html=1;" parent="1" vertex="1">
                    <mxGeometry x="40" y="40" width="760" height="480" as="geometry"/>
                </mxCell>
                <mxCell id="8" value="Triangle&amp;nbsp; type checker&amp;nbsp;" style="rounded=0;whiteSpace=wrap;html=1;" vertex="1" parent="7">
                    <mxGeometry y="20" width="760" height="60" as="geometry"/>
                </mxCell>
                <mxCell id="9" value="what type of triangle is?&lt;br&gt;Enter the length of the triangle to check it out." style="text;html=1;strokeColor=none;fillColor=none;align=center;verticalAlign=middle;whiteSpace=wrap;rounded=0;" vertex="1" parent="7">
                    <mxGeometry x="20" y="120" width="380" height="30" as="geometry"/>
                </mxCell>
                <mxCell id="10" value="" style="rounded=1;whiteSpace=wrap;html=1;" vertex="1" parent="7">
                    <mxGeometry x="60" y="160" width="90" height="20" as="geometry"/>
                </mxCell>
                <mxCell id="15" value="" style="rounded=1;whiteSpace=wrap;html=1;" vertex="1" parent="7">
                    <mxGeometry x="60" y="190" width="90" height="20" as="geometry"/>
                </mxCell>
                <mxCell id="16" value="" style="rounded=1;whiteSpace=wrap;html=1;" vertex="1" parent="7">
                    <mxGeometry x="60" y="220" width="90" height="20" as="geometry"/>
                </mxCell>
                <mxCell id="17" value="check" style="rounded=1;whiteSpace=wrap;html=1;" vertex="1" parent="7">
                    <mxGeometry x="60" y="280" width="60" height="30" as="geometry"/>
                </mxCell>
                <mxCell id="18" value="" style="shape=image;verticalLabelPosition=bottom;labelBackgroundColor=default;verticalAlign=top;aspect=fixed;imageAspect=0;image=data:image/png,iVBORw0KGgoAAAANSUhEUgAAAi8AAADbCAIAAAAqKuY1AAAAA3NCSVQICAjb4U/gAAAAX3pUWHRSYXcgcHJvZmlsZSB0eXBlIEFQUDEAAAiZ40pPzUstykxWKCjKT8vMSeVSAANjEy4TSxNLo0QDAwMLAwgwNDAwNgSSRkC2OVQo0QAFmJibpQGhuVmymSmIzwUAT7oVaBst2IwAABtNSURBVHic7d09dtu8Egbg4T3fUiQXPl6BvAIpTaq06ahSatylTJdGKqUubSo3FldgrsDHhcW98BYUKf6AJPiLGeB9qkSWZQgYYgAQJL04jgkAAMCo/5kuAAAAALIRAAAwgGwEAADmIRsBAIB5yEYAAGAeshEAAJiHbAQAMK9g63metw1Ml4MXZKOOEEYAMEzweiYiOr+iH8lDNuoGYQTmYUgk260XQT9SgmzUCcIIzMOQSLbg9Uy08v0V2rAI2agLhBGYhyGRbEkv8uPl5Qf6kSJkow4QRmAehkSy3XqRb4vFN/QjRchG+hBGYB6GRLIlM9twv/S85T4ktGEOspE2hBGYhyGRbNky6x3aMIVspAthBOZhSCRbMpg4XOObi09owwyykSaEEZiHIZFo0fH3bWabvrL+7hPR+fcx0vh1z/OmKxsHyEZaBoYRwBgwJJJtsXuP4/h9t7i/tD7F5ZfUklRkd0Ly8OxXALM8T+swjI7Py324OlzvfVew9TZnKrwEFiolIVs7bWQjAJOyjgZHItRxJBthpQ7AmHwvY/ciDPTmTmAgGwEACJBNiWzNT8hGAABM2Zp4lJCNAMyonjFyquuBTpIgsTtUkI0AAMA8ZCMAA+q20lk55oV+lEFi8fQI2WgQ+wICjLB1zy6APmSj/ly4Ohqm0BwziCggvTCwLFSQjXrClSIwnHIFBiCvGhi2hgqyEQCAVDYNhZGN+qhGgE0xAZNquBWQxSeooZPW+0VZOT1CNhrEypgAAJgfslFnpWELxrOgT3/Mi3BylmbT2xcqyEYAABy5tvSCbNSNa9ejwYi6hgfCCZpZ1vMgG3Xg4BUAMJG6OEH8OM7lAEA26sOdKwBgLDr7MLFXEzJduxQLQgXZSJd+Y1sQFjCdul4mHzYY3IAmm0IF2agzp64AgClUl/uRioAGP5Ze+jgY2UgLzj/DEA29jOd5ylRk2QlqmI41wxdko26aG96asICpKUMF8eOyUYYdoscuyEbt+jWw6LCAEdVNjJr/q/wEcEGPQYkd45j/TBeAu04L+ug1oE6PyVAcx4gocAfmRh10fSwNuhIYKwYQS3YbuH+BrDjRiGzURD/B1E2h5EYGTCY6Pid7F7znY3R/ZRtU32rHCgyADmQjLc0JppqK0IkAqcciwdZb7ulwjeM4jn99LrcBUfT2LyT/+9pAEYGBscas0qdHHvrNOtUcU2rjhheVvw6uqS6/RMfn5Z4O1/fdIn1h+/bw+G+zf7rEp7p0NHwZBzgbsX1Fhwp2MbTLXwLS/ADy0q1UhY5QYDLR27+QyH9YZK8sdt8/vU1I/i/MjGBEnidvpoFspFaXSBpyTPMOXXGRAQPVjlJXj8v8f5ePK6InvWU6BJJ9xh2zih4E47xRC+UNUqtXiuBiRtAVfl5z/4ve/oXlBFWGQHLB6K0sLi0hGynotGKcM9ZngjVqJkaLbz9WRB9fUfZK8Gcf9vtksMAUrSl37IJs1GR4u8qNDJjCYvfLp3D/87azO9huzrQ6HJ72f5Lt3dFxe4xUv4hAshval3DeqGr0TSnZSi4W/R3ROOBdn+ILeZultyciolWyv+5hm/zS6nB9X9T/MoAOoX2OpLLOYKJt2djt7ZTpdtmK3r8LJZN2CxJDBSt1asOa8H6xfXLB/VVOQMBAOK8DXU2RMCReCYtsdDdaswV/9iH5lziO4+thRWF6UmDcvwK8oYsB6ATZSGFgPxJ9fWQXlSSbqIZ/JgDYZM6VNCljF2SjmzkbTEpwQFfoYoAPcSNgZKOy6ZpQXHAAQ4giC8w/ktD6i8HWU99KfibIRkQaTXXfllBqq2BbfDTAaH8RxJl/FxOiSLqpQ0XW2AXZqEDZeMHWW2YXzJ83aUYKtp7nbc7Jy+F+maWkxcMTUfjvLaL0NpnNnw/QCaIIeuA/dkE2amuk6Pj7TLS6PZAmjuM4ufN/8Homuu2cS/bOpRmI1i+HVZKfvOU+pNXhRXVLTP7BAfrQmqBp5jl0179y3mTXpsy9aIdsdKdututnSLT68U15hXx2t8vFw1Pu5cXuPXcbu+xZNg1/BWwxcxeDLAhjWx2uyfD6/LvjCYiBXM9GmuOUZKLT7xRRFboSy6AdQZORUOnU4awOf3eL26UpxdvNT87pbNQvMu73vDRXBuDJyMQXISQR9zWSZLUnf7v56TmdjTKtkZGdNkrODw0fMXCPRWAPIQT6Oq/HRF8fRPT0MOc9fN29h7duqywf0/wzVbvIus8ulHC4PSVCSAQRs9hwv/Q+D4ePfVh5TPHUMDdq60SSBdR0o8l9q3eSpbLzSelW79H+LkAbhJBQZhuuOSn6vk/n/T4kIv/XbtbHmzg6pOp2L/dgW0g2/iXZ4x0dn5f5B3feHlUzWTGAH+MTI+MFAH3GG8t4AZq5no2Mf30+JYEeODQfhzJAKw7NxHz46+JKHc/VW56lggZoMsel9wUzc61oDwwzUJ6L2SjDoW04lAEGYtKIyI6zCrabM93221785veiaXQ4t6eOw3y5ROhD7IGJLH5gTskWaP/yvlsQLU6aB67xA5xzb+PW3Ij/Qcu/hJBgOKwhxA9I5lY2yrDqQYhfeUAWxA9n3AYubO9M5lA24lb1daSU02Xc+heYX3LrnPuNRYOA/y4G5hzKRhmePQjPUoEUugPe4j4wCRvBuFqfLn7uAvjNq/JdPAeXPKdHrmQjVpXeSlZpXSO9dQrP5Jr7oQFWWZ9yD45JLomvJ3G4meTZ2f6cK9kowzkmOJfNFV2mDtzaS2vAuz6lvaaRhwYAO3XRkr0+W0JyIhtJHMxKLLMdmqcO4tsll24L97WCCXA+v9hQpJmnRBknslGGYUyU8C+h5bSnDsxbqq43CV7P2QNSrofVzKUCnvLToFLkJEOzeYph/9WvnIcnSpwvT7Nf6Q650uhdCRt+Xil6e8bcaFL8p9GlaKnmoZnLI35uZGpSyQoqYSzNUwdZIxtlSKxfDskDUpZ78n3MjeYgMVqMlFn23Kh0nq1ag7K6j0yn6VG+EmR9Ta5kTx1apkeL3Xu8y/53Os1RJBDEYB8ie25UqrjSFMGO6ULDt8CUaHQNUwehIxswgv+BafYUkZINo2llw+dHiEK/Y0P5q19Z6HcURFY4ySqtfZjXf12yrCtt3eLTuGTPjRLKlM5/bKKv9F2QiuZnUziBy5RTotZfKf1jIiLPGykTdfJfm3qN6gkA5CHjxFU4zibOj+3EqDUPlaJl5u5UXjZq3rmgzElsg0Mf8pBBEoc4eOgRlDSkIiYDX5Hjptaaaj4OZX3lurNi85fEWUJHM/nIkVVy0ThXe8Ppn4Y+c7ZvIfK8kXKCqVzclH5KSZl3uYU48IQ4MYth/Tf0Hl1fn4K8lbpE84pc/j3KN4tYTMfqHAdCJ0YwhXm2lhnBobcR0Cm36rSWJaJz4TBrhoSIgGkgvfx86PTXEmubz7kAG7JRgk+dDqSc4WkuRls8djNCYudSYsFX4KN1mCiutrteeDQpe7IRMavZHpoHX82BzuE2U/YR17lUcT6pLpTOiWf+VV3X2xiMeZG7GJSk30FH/y4d1e/C/9tJZEet8u8WxYlTDe9hHjzc7gmUsGduVE3pHM7Laeq0EEcyv6M4FkyMEpgeTU3WJSU618DW/WhSXOdGXR4ITfUnjTpdh2RQaftfq6xiSh/CLe7lYhsqPSAqptY6T2IVTvnehlVscM1GbQ+ErlOtXG41XkennA3XBIj4jhKhYqGTunU8bglJJ7BnLjPXbKT9QGjSPqloQZdtzb5BmFnD0i4M17A2I/HwNFVmrle/9nogtMSG14dTRLOx5owRzEwZMKKjaM4bBTCdGzU/EDrPhY6jbt0Z41zQh+kR6DPSnTLNRkR0eyD0UeoDoUcx4VaFjvtE3OHC+AZGhOw+FqbZqOGB0Hl2dxwNeWiUcW6/fSJgAXSgU7CsF5p/Mi34eiO7r6LQvyZA+dNOkgmof4nTnSPusjuoyPYBnBEWV+nMX43rLoYu7AuCvIZd3YPGLL32ibjD7qAiIbex58/iVES5TmaeaGG6UtfK+qWGTttDe9SG/j4Rd1gfVGRppwl2ED83cvnoGjo9SvaJvDm9T0TJ5aACfS4MXzIzTI9Ezo2cCgJNXetEc58I2AdbvUdn8fBlzq8mcu3Y7rXarlAbo3CqGp36stNxpBpn29ojb26EAV0d1Ax0hZjpzZFURDN+QXnZKGN9EGhCPQznTs+ScORrwugmHb4Iy0au9RqacCYAekPM9OBapc3T30rKRq5FQD+opa7crDGM50aBahyRpGyUQQRUoU6GQx0C1NFdgMlugNn91pdispGbA9h+UFegAwu8/eB8QZ1g693v8HLeeN5zp7tfyrv6FRFQZ/DFsC5CzwKgqeVGQdHxd3KDl/fdotfny5gboZPtCjUGnSBgNAmtqDmKff0MiVY/vvVLRSQlG2UwgG2G+ukEEyNnv/hwgqoum9CM/pl50dcHET099E5GErKR0MGIcag36AQBY73hTYx7MdwIGowYhFrShM43gYDRxz9mlCUcpYmzx0TXvWHx8EREH1/9n9rJPRthLaUH7JXqBKEFXfGMGZ0VuR59gjIJKWpg+bhKngvQF+tshM50ONShEqolD8MXy2glD40PqZsMqT9t8e1H8lyAu247vFlnowzPkQhnqDFNqCjQxH+dZpSHczYnocZHgC52fwc9uJPvEyVmu425rVCBDfj3LPNDnTTjWT+lS3+aj/rmr1CXpXAP7ztWbS8I6q0Oz24FOOO5hlk9UdQc0sol2dbJ0Dhl1cA0G/Fse7lQn6AP0dKA5whG2WSTrchNhWk2yvBseylQe1WYGNVBhYijbDLN6ZHyR0aSUIZjNsLQbAqoVdCHaMkTMYJRrtfxXJGrwzEbZThUkHSowzx0ss0QLeK0NlnzVatM8lCCXTZCfzEd1G2GzxEIzAk9appX5LJ/s/p27LJRBv3FWFCTCZ0DLzo+p0PJ7g8LswKuhK3D9jgqNVndZCh/Wojnd+GVjUSsz0qELiavLrqi4/Py81dyxF7888bVhARy9bhmiE+fwCgbjVcpuQFu55tT2I9P8PESHX/uny6ndfK/9eni0/m3XbHTdeaHUBExPtbJQKPcK2hqjLJRZmg1BX/2IfmXOI7j62FF4f4Phrgsg29Ord1K9PYvXD0u7y+sv/tWxY7+zM/xUJFi+Ioct4bmko1GHIVFXx9Et34luY8flGDMWxG9/QtLTwpbPq6G3SCfk74zP5dDhed3b94jR/XF5ry3O8ElG2X4VI19nK1bjfWW62dYfmnx8DTsBvmMdJ35ORsqSkxqo9+tE5gUXgeLbMRzDGI31LlC4Wb4nrc5my7QWGyf+VlNZ0Wu+iuld05YvvGwyEYZKbUml4M13CHvJicbU9dBd8dnpc/Mz/F9mMa/dY9bJ7Te9WfM8k3AfDZqbfX7RqDSaddgq9w0lxxm/94iuo0JXda0vdD48TazxqNx+ahOPYXlLdmsnflNa+ZOvDUJaZZH4tFtPhtllLUcbL3lPk0o502akYJt7nAK98tCR7t+OaySF73lPqTV4WU9eeGZUm0v5D9EGpH2Mbl4eCovXF0/Qyotb4k2YOYnsWsTZ5QkJProNpyNWk4vR8ffZ6LV4Xo/iE5rIgpez3Q/uq6HVTYZIiKixe49d9i976zpT7qq217o4CJM61G6fjms8kGUBJn/3YqRTM+Zn+iubYg5LzPqsSLXTG6rmcxG7V3h9TMkWv34pkwn2ZG0eHgauWQucSchtVjsfvnh/udtjh1sN2fysy3Rwo0w80OcjGusFTklEWeJqlis1DVXXLLmpjxFBL1JDNau8od661UaRLQ+xZenW7RtPg7X2JJcRANmfi7EScnUeXe6JCSdsWzUr8nvY1cYj1PD3uactD5ZusDba+bXmr/tNm5iGH1Fzj7m50atzZCdNkrOD9lxNeI8mrcX2n0A5Jf+q9/UwU5WZ+bnFVV/Ok9RbTLpipxlzGQj3bBePiL/lHTb7669vdD6jqZ62Fv/lauaZ34OVkjViPsXkIQ6i03Q/uuKbaj+Rb07tbDzzlIXX1EZipe7VIbZSJhIc4Qbj3+GWjsHR2ps+NdU1qQLVTecgblRlyHYYver2NMma92L3d9SPlod/tq1zq/Qc7+7LiuHxnHHS9Yh3zuYLsvchhwCs67IpQsh6mUSsUyeN9Jqnvviwr37pfIlRdadc1aaZr+7fZ2OlWl1Up1qzIXq7XRQGFmRKww+bXkO19zZqLTpdua/boEp9rtnB4xlLWJfop1aQ42hMktM7pFbn7Jh+bcf9pxbN38vBst6wDlhvzsYYeUxq7l/gcUeudxK3f3GafLNmo3qghg5Sd9E+92tmR6NuCcKShyvUvNJKBW83k8gW3Snefpvtr+Ub8ik5UpN63me4+He4r7ffYRzZA1Zx/qGQMaCkubDoe5HRuMn/LxS9PaMudEgWRNWxxSsBuasCkOULhGnzwW4R2GSpbLzSW1PCrB4Joo0MzVr5tB18l+Qz2SoZP1ySHqC5Z5835650Uyj4OrEqO4NTPqRhvKYnDoE20Ky8S/JJsPoWBwirQ7Xmk2G+p0Ik4boRD+KkndK/I5T6HT0cTtUR5H/UnXHiE3fl6e5s1Hdn+MW4nXl4VbOrsQ1hD5bR+uciQsSpdbIseNr8jfHeSN0ExJZf/YIoBnif2aznjdC6/KHNgLXlGLe+GkhZ00+N8LESC5Z0yNBRQVuEDwczDc3QntLodtS99uJj3hfCABw1LTZSP/y5kmLAV1138ib7DC35faNMFB2swBEBGibMBv1yDGYP81Gv3Va3lm8feMrOh8dwdbijjrY5i56O28wbwZNc6zUIcfwod8WaDXoQ/HcE/Y32MeaMw9TZaP8gNpro//O2dQViWFRu+rXLrUtXbg3hP+95tmyk0OHwkTjc08kwJqzMYbv4Q0wARkdSprHBRRVX/T1QURPDwKTEdacTZsqG2GdxyZNrZkew/HFN//YL2EdyupwtetxaQADTHi9kdyE5Fl6WyBgZXX4u1sQffux2odj3ZrduMXDE1H48RXRWtrXOW+8+z0gza05OwwrdTBMtt60OZPxJRomJ7E6SR4d//FlyeTo/twTgG6QjWA8/uUkIgGwIvhMi0rxuSeSNpWwWnN2ErIR9LXYvcdFxnORqA4l3C+97fH4cx8SrR6XposzlsXur0WPI4UZzffsVwDI833/fN7viYj8X9wvyelisXuPd6YL0V3hvJE9k1VBRpob4UYgrbIqQkVNh9VJrAbrUxzHp9OJzaQSirDmbMII2ci+G4HU3VJ+4K3mi9uPmS8jyYcOBTQxXHN20uBHBiQPwa5/9DVUJXWWPkYcAACGnzcSfyOQuQTb+wwSAACKhq7UWbY9dTrB6/1eklfsOQIAKMKeujmFn1eK3p6X+9B0SQAAeBk6N7LsQvLprF8OyUWByz35PuZGAAAFI+1iwBl5AAAYYPAOb7k3AgEAADaGX2+EG4EAAMBQg1fqAAAABsNdUwEAwDxkIwAAMA/ZCAAAzEM2AgAA85CNAADAPGQjAAAwD9kIAADMQzYCAADzkI0AAMA8ZCMAADAP2QgAAMxDNgIA1wXb2wMItkGf3xT52AJ+JUc2AgCXBVvP25xv/zlvWPTQ0fG5rhzR8ZlbFhnLrNko2HYfelQ/Yp6WUP2hbADlzfM0J36DF0mSo3ZowGkT0VgiCjmz4PVMtDpc48z7bmG6UNfPsO5Hi907jzKOb65sFB2fPW9zzj+Wr0M/0Wk40DCsmIfFgxeYjpvDYc6Ko89tUBqNqjqwwluSBgu2xV++/ZrinTfR8TmZq4X7pedtg+InPG+36ShLWR6dP5f8ya+2ks9urmyU5Hr/ch+AdHl0eafhQMOwYqD1KSn5xaf7aKpaKosHLzAdN4fDTIT7ZbkjDrabM92O84ufvJZ2YNfDiuj8u9xnJ7+yOlyTN4T7P2nCOm82H4dr8mubbdDwzqS1711M2k2eN9lq4l1dedR/rvCL77sHrZLPadaVutXjsvRKMujLp/fC+kq6sKBedFEMDSrDivbRyvPx2D7kaeHM4EWkUpClVVd4OWmEmneWx8gabaF4Q82HZ2Vxczhs3vql8OzqcL9MupKvD0p67UUyDj2t16c0NSy+/VgRhZ/XwifdfuXXbkGL3S+fiD6+bpW6Olzfd4vk15rfWScb/b48ZiWvLY/6z11ymeu10Mv1KM8UZs1G6QDk3h/83Ie3Wrr2eZx5ZWhQGVY0jlbOtZ/T59u5MHiRKPizV0w6brFH/uXiE9F583yM1O+sjpFb20L1BvWH37g7HGYgmXnGuXWPmq44l72X9Y15OxmxORPR00PTdFb/nWp65SGixcMTpRkoicPqxGCE8gxmZE9duF96z8coevsXEvmXDkt2BW1DFWobrdxW2nbtn6PDhcGLWLmz1O+7BVEae/FpvT7FF//eNpV3VsbIy7a2qG+s8ofrFRoRNZ/lY+2oOL/doWHwnD8d0dy16b9zSHmI0vnfeZPmGv+XKvoGlme4eVfqchtXRlgE1x4atOR87c+ZroRSBi8Srb/7+fMCtUuxH19LzXcSkUZblN6gW4xmiKjxFRYss1q9VWA2+QyCV6Ik/UfH51Llh//eouqvUBTV5He9dyaf2kxdnpLo+HMf5nvfe67pWvJJCb7eSH9o0JzzOwwxJiuhlMGLSOnmk5Z1mKeHheY7iUijLcpv6PLhdRBRM1gd/ibz4Et+/LB5/Z7W6HJPvp9WflLP4X75fIyyf6ep7U/dKkvbO+8/rx+0rJXlUVk8PBVHQt7zMepZ8inNlY2Wj6tSfXjba274lqycZM6vAVVXvlO5MUPd0OD2Fu2c3zTkGcaqwYtwyeoUUbE+o+Pvc3nqoH4nEVEQXOvbQq+x7h9e4dxwmIHcMKG4bFP8wWl9P8H0fjq9p3Wavvq+WxRPQeVHIbfPTH5+WpPynXnZz0/rwieoPyNXHvWfI7qPPC7+LQbaSj6/eCbVkZx/qb7oX+67KYn8w2FFtLqdmy3udsheJSJaJUOD/Cp5+mnlP5H9hfuRqv6c3B8qf5fS75dfuJdW+cn5N2dvvX/p9BcO12IZVF8EGtTVbdpOxQr1L3Fc987iy4q4rQRMbdRVP7xc4FyZEVEwilz/GSu6LzZmy0ZtihXmnIsvIlxADEQUZCpDE549reDzRjZpWLsB6AERBXfrU1y6hJflScL/TBcAiNLTjOeNdz9R5uoOJxgFIgpK1qc4PpkuRCPMjXgQMngBMRBRII0Xx7HpMgAAgOswNwIAAPOQjQAAwDxkIwAAMA/ZCAAAzEM2AgAA85CNAADAPGQjAAAwD9kIAADM+z9AdR2h6uE7nwAAAABJRU5ErkJggg==;" vertex="1" parent="7">
                    <mxGeometry x="430" y="170" width="239" height="93.63" as="geometry"/>
                </mxCell>
            </root>
        </mxGraphModel>
    </diagram>
</mxfile>